<?xml version="1.0" encoding="UTF-8" standalone="no"?>
<!-- Created with Inkscape (http://www.inkscape.org/) -->

<svg
   width="12.7mm"
   height="12.7mm"
   viewBox="0 0 12.7 12.7"
   version="1.1"
   id="svg1"
   inkscape:version="1.3 (1:1.3+202307231459+0e150ed6c4)"
   sodipodi:docname="icon-incscape.svg"
   inkscape:export-filename="./icon-incscape.png"
   inkscape:export-xdpi="96"
   inkscape:export-ydpi="96"
   xmlns:inkscape="http://www.inkscape.org/namespaces/inkscape"
   xmlns:sodipodi="http://sodipodi.sourceforge.net/DTD/sodipodi-0.dtd"
   xmlns="http://www.w3.org/2000/svg"
   xmlns:svg="http://www.w3.org/2000/svg">
  <sodipodi:namedview
     id="namedview1"
     pagecolor="#505050"
     bordercolor="#ffffff"
     borderopacity="1"
     inkscape:showpageshadow="0"
     inkscape:pageopacity="0"
     inkscape:pagecheckerboard="1"
     inkscape:deskcolor="#d1d1d1"
     inkscape:document-units="mm"
     inkscape:zoom="2.8284271"
     inkscape:cx="-4.5961941"
     inkscape:cy="1.9445437"
     inkscape:window-width="1920"
     inkscape:window-height="1011"
     inkscape:window-x="0"
     inkscape:window-y="0"
     inkscape:window-maximized="1"
     inkscape:current-layer="layer1" />
  <defs
     id="defs1" />
  <g
     inkscape:label="Layer 1"
     inkscape:groupmode="layer"
     id="layer1"
     transform="translate(-90.795456,-63.478161)">
    <g
       id="g7"
       inkscape:export-filename="./icon-192px.png"
       inkscape:export-xdpi="384"
       inkscape:export-ydpi="384">
      <rect
         style="fill:#677821;fill-opacity:1;stroke:none;stroke-width:0.264583;paint-order:markers stroke fill;-webkit-print-color-adjust:exact"
         id="rect5"
         width="12.7"
         height="12.7"
         x="90.795456"
         y="63.478161"
         rx="0"
         ry="0"
         inkscape:export-filename="./icon-192px.png"
         inkscape:export-xdpi="96"
         inkscape:export-ydpi="96" />
      <g
         id="g6">
        <path
           id="path6"
           style="font-weight:bold;font-size:7.05556px;line-height:1.25;font-family:shabnam;-inkscape-font-specification:'shabnam Bold';text-align:center;text-anchor:middle;fill:#445016;stroke-width:0.264583"
           d="m 94.974025,66.280339 c -0.590258,0 -1.035997,0.18259 -1.336869,0.54777 -0.300872,0.365179 -0.451135,0.897046 -0.451135,1.595252 -0.0093,1.098111 -0.01034,2.196232 -0.01034,3.294372 0,0.668349 0.186036,1.173457 0.558106,1.51567 0.372069,0.34451 0.912949,0.516764 1.62264,0.516764 h 0.1757 c 0.656864,0 1.167543,-0.141249 1.532723,-0.423746 0.365177,-0.282498 0.564996,-0.70148 0.599446,-1.257288 0.05283,0.02985 0.109272,0.05529 0.168982,0.07596 0.05971,0.02067 0.120408,0.03524 0.182418,0.04444 0.06201,0.0092 0.12666,0.01395 0.19327,0.01395 0.415706,0 0.732656,-0.128789 0.950846,-0.386023 0.215893,0.257234 0.522505,0.386023 0.919848,0.386023 0.38354,0 0.68326,-0.124024 0.89915,-0.372071 0.21589,-0.248046 0.3235,-0.586986 0.3235,-1.016475 v -1.043864 -0.137459 h -0.13746 -0.60306 -0.13798 v 0.137459 1.016476 c 0,0.192924 -0.0284,0.327286 -0.0858,0.403076 -0.0574,0.07579 -0.15043,0.113688 -0.27904,0.113688 -0.169963,0 -0.293183,-0.04002 -0.368973,-0.120406 -0.0758,-0.08039 -0.11449,-0.217386 -0.11679,-0.410311 l -0.004,-0.891935 v -0.137976 h -0.137576 -0.585494 -0.137976 v 0.137976 l -0.0031,0.89917 c 0,0.188331 -0.0379,0.323496 -0.113689,0.406176 -0.07579,0.08039 -0.19637,0.120923 -0.361735,0.120923 -0.179144,0 -0.310061,-0.04611 -0.39274,-0.137976 -0.08268,-0.09187 -0.124024,-0.249023 -0.124024,-0.471806 V 69.891996 69.75402 h -0.137976 -0.606165 -0.137976 v 0.137976 2.011763 c 0,0.321542 -0.103353,0.560575 -0.310058,0.716753 -0.206706,0.158471 -0.536115,0.237711 -0.98857,0.237711 h -0.1757 c -0.450159,0 -0.780889,-0.09302 -0.992188,-0.279053 -0.209003,-0.186034 -0.313676,-0.474618 -0.313676,-0.865063 0.002,-1.096926 -0.003,-2.193839 -0.0067,-3.290755 -0.0013,-0.369772 0.04347,-0.654397 0.130742,-0.854212 0.08728,-0.202113 0.22508,-0.321887 0.413411,-0.358634 v 0.499711 c 0,0.475422 0.117134,0.839283 0.3514,1.091923 0.234267,0.250343 0.574011,0.375688 1.019576,0.375688 0.427192,0 0.751031,-0.126149 0.971517,-0.378789 0.222783,-0.252639 0.334346,-0.617016 0.334346,-1.092439 v -0.151412 c 0,-0.413411 -0.115812,-0.72904 -0.347782,-0.947229 -0.23195,-0.218189 -0.564,-0.327629 -0.995785,-0.327629 z m 4.148584,0 -0.554488,0.54777 0.554488,0.554488 0.551388,-0.554488 z m -0.626835,0.843876 -0.555005,0.555005 0.555005,0.54777 0.550871,-0.54777 z m 1.250573,0 -0.551391,0.555005 0.551391,0.54777 0.554483,-0.54777 z m -4.286563,0.02429 h 0.409794 c 0.192925,0 0.328604,0.03234 0.406693,0.09664 0.07809,0.06431 0.117306,0.168983 0.117306,0.313676 v 0.144694 c 0,0.238861 -0.03577,0.40767 -0.10697,0.506429 -0.0689,0.09646 -0.177825,0.144694 -0.327112,0.144694 -0.172255,0 -0.29892,-0.04955 -0.379305,-0.148311 -0.08039,-0.09876 -0.120406,-0.266249 -0.120406,-0.502812 z"
           sodipodi:nodetypes="sscscssscssscsssccccccsssccccccccccsssccccccscsscscccscscsssssccccccccccccccccsssscsssc" />
        <path
           id="path5"
           style="font-weight:bold;font-size:7.05556px;line-height:1.25;font-family:shabnam;-inkscape-font-specification:'shabnam Bold';text-align:center;text-anchor:middle;fill:#ffffff;stroke-width:0.264583"
           d="m 94.880481,66.093251 c -0.590258,0 -1.035997,0.18259 -1.336869,0.54777 -0.300872,0.365179 -0.451135,0.897046 -0.451135,1.595252 -0.0093,1.098111 -0.01034,2.196232 -0.01034,3.294372 0,0.668349 0.186036,1.173457 0.558106,1.51567 0.372069,0.34451 0.912949,0.516764 1.62264,0.516764 h 0.1757 c 0.656864,0 1.167543,-0.141249 1.532723,-0.423746 0.365177,-0.282498 0.564996,-0.70148 0.599446,-1.257288 0.05283,0.02985 0.109272,0.05529 0.168982,0.07596 0.05971,0.02067 0.120408,0.03524 0.182418,0.04444 0.06201,0.0092 0.12666,0.01395 0.19327,0.01395 0.415706,0 0.732656,-0.128789 0.950846,-0.386023 0.215893,0.257234 0.522506,0.386023 0.919841,0.386023 0.383551,0 0.683271,-0.124024 0.899161,-0.372071 0.21589,-0.248046 0.3235,-0.586986 0.3235,-1.016475 v -1.043864 -0.137459 h -0.13746 -0.60306 -0.13798 v 0.137459 1.016476 c 0,0.192924 -0.0284,0.327286 -0.0858,0.403076 -0.0574,0.07579 -0.15043,0.113688 -0.279049,0.113688 -0.169958,0 -0.29318,-0.04002 -0.36897,-0.120406 -0.07582,-0.08039 -0.114488,-0.217386 -0.116788,-0.410311 l -0.0036,-0.891935 v -0.137976 h -0.137976 -0.585494 -0.137976 v 0.137976 l -0.0031,0.89917 c 0,0.188331 -0.0379,0.323496 -0.113689,0.406176 -0.07579,0.08039 -0.19637,0.120923 -0.361735,0.120923 -0.179144,0 -0.310061,-0.04611 -0.39274,-0.137976 -0.08268,-0.09187 -0.124024,-0.249023 -0.124024,-0.471806 v -0.806152 -0.137976 h -0.137976 -0.606165 -0.137976 v 0.137976 2.011763 c 0,0.321542 -0.103353,0.560575 -0.310058,0.716753 -0.206706,0.158471 -0.536115,0.237711 -0.98857,0.237711 h -0.1757 c -0.450159,0 -0.780889,-0.09302 -0.992188,-0.279053 -0.209003,-0.186034 -0.313676,-0.474618 -0.313676,-0.865063 0.002,-1.096926 -0.003,-2.193839 -0.0067,-3.290755 -0.0013,-0.369772 0.04347,-0.654397 0.130742,-0.854212 0.08728,-0.202113 0.22508,-0.321887 0.413411,-0.358634 v 0.499711 c 0,0.475422 0.117134,0.839283 0.3514,1.091923 0.234267,0.250343 0.574011,0.375688 1.019576,0.375688 0.427192,0 0.751031,-0.126149 0.971517,-0.378789 0.222783,-0.252639 0.334346,-0.617016 0.334346,-1.092439 V 67.3681 c 0,-0.413411 -0.115812,-0.72904 -0.347782,-0.947229 -0.23195,-0.218189 -0.564,-0.327629 -0.995785,-0.327629 z m 4.148584,0 -0.554488,0.54777 0.554488,0.554488 0.551388,-0.554488 z m -0.626835,0.843876 -0.555005,0.555005 0.555005,0.54777 0.550871,-0.54777 z m 1.25057,0 -0.551388,0.555005 0.551388,0.54777 0.55449,-0.54777 z m -4.28656,0.02429 h 0.409794 c 0.192925,0 0.328604,0.03234 0.406693,0.09664 0.07809,0.06431 0.117306,0.168983 0.117306,0.313676 v 0.144694 c 0,0.238861 -0.03577,0.40767 -0.10697,0.506429 -0.0689,0.09646 -0.177825,0.144694 -0.327112,0.144694 -0.172255,0 -0.29892,-0.04955 -0.379305,-0.148311 -0.08039,-0.09876 -0.120406,-0.266249 -0.120406,-0.502812 z"
           sodipodi:nodetypes="sscscssscssscsssccccccsssccccccccccsssccccccscsscscccscscsssssccccccccccccccccsssscsssc" />
      </g>
    </g>
  </g>
</svg>
